<mxfile host="Electron" modified="2025-01-02T22:44:29.247Z" agent="Mozilla/5.0 (Windows NT 10.0; Win64; x64) AppleWebKit/537.36 (KHTML, like Gecko) draw.io/22.1.16 Chrome/120.0.6099.109 Electron/28.1.0 Safari/537.36" etag="ui79zq3COjp5JPiUJYYF" version="22.1.16" type="device">
  <diagram name="Side-1" id="_mVIDXEz1tLf-h4SaTjO">
    <mxGraphModel dx="915" dy="983" grid="1" gridSize="10" guides="1" tooltips="1" connect="1" arrows="1" fold="1" page="1" pageScale="1" pageWidth="827" pageHeight="1169" math="0" shadow="0">
      <root>
        <mxCell id="0" />
        <mxCell id="1" parent="0" />
        <mxCell id="xTKe3Vj9FoTpNCWQvqT8-21" value="" style="group" vertex="1" connectable="0" parent="1">
          <mxGeometry x="30" y="70" width="730" height="830" as="geometry" />
        </mxCell>
        <mxCell id="xTKe3Vj9FoTpNCWQvqT8-18" value="&lt;b&gt;IBD &lt;/b&gt;FPGAAudioEffects" style="shape=umlFrame;whiteSpace=wrap;html=1;pointerEvents=0;width=150;height=30;" vertex="1" parent="xTKe3Vj9FoTpNCWQvqT8-21">
          <mxGeometry x="10" width="720" height="600" as="geometry" />
        </mxCell>
        <mxCell id="xTKe3Vj9FoTpNCWQvqT8-19" value="&amp;lt;&amp;gt;" style="html=1;whiteSpace=wrap;points=[[0,0.5,0,0,0],[0.5,0,0,0,0],[0.5,1,0,0,0],[1,0.5,0,0,0]];" vertex="1" parent="xTKe3Vj9FoTpNCWQvqT8-21">
          <mxGeometry y="540" width="20" height="20" as="geometry" />
        </mxCell>
        <mxCell id="xTKe3Vj9FoTpNCWQvqT8-15" value="" style="group" vertex="1" connectable="0" parent="xTKe3Vj9FoTpNCWQvqT8-21">
          <mxGeometry x="130" y="525" width="130" height="50" as="geometry" />
        </mxCell>
        <mxCell id="xTKe3Vj9FoTpNCWQvqT8-5" value=": ZyboAudio" style="html=1;whiteSpace=wrap;" vertex="1" parent="xTKe3Vj9FoTpNCWQvqT8-15">
          <mxGeometry x="10" width="110" height="50" as="geometry" />
        </mxCell>
        <mxCell id="xTKe3Vj9FoTpNCWQvqT8-14" value="&amp;lt;&amp;gt;" style="html=1;whiteSpace=wrap;points=[[0,0.5,0,0,0],[0.5,0,0,0,0],[0.5,1,0,0,0],[1,0.5,0,0,0]];" vertex="1" parent="xTKe3Vj9FoTpNCWQvqT8-15">
          <mxGeometry y="15" width="20" height="20" as="geometry" />
        </mxCell>
        <mxCell id="xTKe3Vj9FoTpNCWQvqT8-16" value="&amp;lt;&amp;gt;" style="html=1;whiteSpace=wrap;points=[[0,0.5,0,0,0],[0.5,0,0,0,0],[0.5,1,0,0,0],[1,0.5,0,0,0]];" vertex="1" parent="xTKe3Vj9FoTpNCWQvqT8-15">
          <mxGeometry x="110" y="15" width="20" height="20" as="geometry" />
        </mxCell>
        <mxCell id="xTKe3Vj9FoTpNCWQvqT8-22" style="edgeStyle=orthogonalEdgeStyle;rounded=0;orthogonalLoop=1;jettySize=auto;html=1;exitX=1;exitY=0.5;exitDx=0;exitDy=0;exitPerimeter=0;entryX=0;entryY=0.5;entryDx=0;entryDy=0;entryPerimeter=0;endArrow=none;endFill=0;" edge="1" parent="xTKe3Vj9FoTpNCWQvqT8-21" source="xTKe3Vj9FoTpNCWQvqT8-19" target="xTKe3Vj9FoTpNCWQvqT8-14">
          <mxGeometry relative="1" as="geometry" />
        </mxCell>
        <mxCell id="xTKe3Vj9FoTpNCWQvqT8-23" value="Audio: I2S" style="edgeLabel;html=1;align=center;verticalAlign=middle;resizable=0;points=[];" vertex="1" connectable="0" parent="xTKe3Vj9FoTpNCWQvqT8-22">
          <mxGeometry x="-0.0964" relative="1" as="geometry">
            <mxPoint as="offset" />
          </mxGeometry>
        </mxCell>
        <mxCell id="xTKe3Vj9FoTpNCWQvqT8-13" value="" style="group" vertex="1" connectable="0" parent="xTKe3Vj9FoTpNCWQvqT8-21">
          <mxGeometry x="250" y="290" width="400" height="290" as="geometry" />
        </mxCell>
        <mxCell id="xTKe3Vj9FoTpNCWQvqT8-12" value="" style="group" vertex="1" connectable="0" parent="xTKe3Vj9FoTpNCWQvqT8-13">
          <mxGeometry width="400" height="290" as="geometry" />
        </mxCell>
        <mxCell id="xTKe3Vj9FoTpNCWQvqT8-3" value=": ZyboProcessingSystem" style="html=1;whiteSpace=wrap;" vertex="1" parent="xTKe3Vj9FoTpNCWQvqT8-12">
          <mxGeometry x="10" width="390" height="130" as="geometry" />
        </mxCell>
        <mxCell id="xTKe3Vj9FoTpNCWQvqT8-11" value="&amp;gt;" style="html=1;whiteSpace=wrap;points=[[0,0.5,0,0,0],[0.5,0,0,0,0],[0.5,1,0,0,0],[1,0.5,0,0,0]];" vertex="1" parent="xTKe3Vj9FoTpNCWQvqT8-12">
          <mxGeometry y="20" width="20" height="20" as="geometry" />
        </mxCell>
        <mxCell id="xTKe3Vj9FoTpNCWQvqT8-8" value="&amp;lt;&amp;gt;" style="html=1;whiteSpace=wrap;points=[[0,0.5,0,0,0],[0.5,0,0,0,0],[0.5,1,0,0,0],[1,0.5,0,0,0]];rotation=90;" vertex="1" parent="xTKe3Vj9FoTpNCWQvqT8-12">
          <mxGeometry x="26" y="120" width="20" height="20" as="geometry" />
        </mxCell>
        <mxCell id="xTKe3Vj9FoTpNCWQvqT8-32" value="&amp;gt;" style="html=1;whiteSpace=wrap;points=[[0,0.5,0,0,0],[0.5,0,0,0,0],[0.5,1,0,0,0],[1,0.5,0,0,0]];" vertex="1" parent="xTKe3Vj9FoTpNCWQvqT8-12">
          <mxGeometry y="90" width="20" height="20" as="geometry" />
        </mxCell>
        <mxCell id="xTKe3Vj9FoTpNCWQvqT8-36" value="&amp;lt;&amp;gt;" style="html=1;whiteSpace=wrap;points=[[0,0.5,0,0,0],[0.5,0,0,0,0],[0.5,1,0,0,0],[1,0.5,0,0,0]];" vertex="1" parent="xTKe3Vj9FoTpNCWQvqT8-12">
          <mxGeometry y="55" width="20" height="20" as="geometry" />
        </mxCell>
        <mxCell id="xTKe3Vj9FoTpNCWQvqT8-71" value="&amp;lt;&amp;gt;" style="html=1;whiteSpace=wrap;points=[[0,0.5,0,0,0],[0.5,0,0,0,0],[0.5,1,0,0,0],[1,0.5,0,0,0]];rotation=90;" vertex="1" parent="xTKe3Vj9FoTpNCWQvqT8-12">
          <mxGeometry x="30" y="-10" width="20" height="20" as="geometry" />
        </mxCell>
        <mxCell id="xTKe3Vj9FoTpNCWQvqT8-72" value="&amp;lt;" style="html=1;whiteSpace=wrap;points=[[0,0.5,0,0,0],[0.5,0,0,0,0],[0.5,1,0,0,0],[1,0.5,0,0,0]];rotation=270;" vertex="1" parent="xTKe3Vj9FoTpNCWQvqT8-12">
          <mxGeometry x="90" y="-10" width="20" height="20" as="geometry" />
        </mxCell>
        <mxCell id="xTKe3Vj9FoTpNCWQvqT8-74" value="&amp;lt;&amp;gt;" style="html=1;whiteSpace=wrap;points=[[0,0.5,0,0,0],[0.5,0,0,0,0],[0.5,1,0,0,0],[1,0.5,0,0,0]];rotation=90;" vertex="1" parent="xTKe3Vj9FoTpNCWQvqT8-12">
          <mxGeometry x="150" y="-10" width="20" height="20" as="geometry" />
        </mxCell>
        <mxCell id="xTKe3Vj9FoTpNCWQvqT8-84" value="&amp;lt;&amp;gt;" style="html=1;whiteSpace=wrap;points=[[0,0.5,0,0,0],[0.5,0,0,0,0],[0.5,1,0,0,0],[1,0.5,0,0,0]];rotation=90;" vertex="1" parent="xTKe3Vj9FoTpNCWQvqT8-12">
          <mxGeometry x="240" y="-10" width="20" height="20" as="geometry" />
        </mxCell>
        <mxCell id="xTKe3Vj9FoTpNCWQvqT8-85" value="&amp;lt;&amp;gt;" style="html=1;whiteSpace=wrap;points=[[0,0.5,0,0,0],[0.5,0,0,0,0],[0.5,1,0,0,0],[1,0.5,0,0,0]];rotation=90;" vertex="1" parent="xTKe3Vj9FoTpNCWQvqT8-12">
          <mxGeometry x="360" y="-10" width="20" height="20" as="geometry" />
        </mxCell>
        <mxCell id="xTKe3Vj9FoTpNCWQvqT8-87" value="&amp;lt;" style="html=1;whiteSpace=wrap;points=[[0,0.5,0,0,0],[0.5,0,0,0,0],[0.5,1,0,0,0],[1,0.5,0,0,0]];rotation=270;" vertex="1" parent="xTKe3Vj9FoTpNCWQvqT8-12">
          <mxGeometry x="300" y="-10" width="20" height="20" as="geometry" />
        </mxCell>
        <mxCell id="xTKe3Vj9FoTpNCWQvqT8-37" value="&amp;lt;&amp;gt;" style="html=1;whiteSpace=wrap;points=[[0,0.5,0,0,0],[0.5,0,0,0,0],[0.5,1,0,0,0],[1,0.5,0,0,0]];rotation=90;" vertex="1" parent="xTKe3Vj9FoTpNCWQvqT8-12">
          <mxGeometry x="240" y="120" width="20" height="20" as="geometry" />
        </mxCell>
        <mxCell id="xTKe3Vj9FoTpNCWQvqT8-45" value="&amp;lt;" style="html=1;whiteSpace=wrap;points=[[0,0.5,0,0,0],[0.5,0,0,0,0],[0.5,1,0,0,0],[1,0.5,0,0,0]];rotation=90;" vertex="1" parent="xTKe3Vj9FoTpNCWQvqT8-12">
          <mxGeometry x="300" y="120" width="20" height="20" as="geometry" />
        </mxCell>
        <mxCell id="xTKe3Vj9FoTpNCWQvqT8-50" value="&amp;lt;&amp;gt;" style="html=1;whiteSpace=wrap;points=[[0,0.5,0,0,0],[0.5,0,0,0,0],[0.5,1,0,0,0],[1,0.5,0,0,0]];rotation=90;" vertex="1" parent="xTKe3Vj9FoTpNCWQvqT8-12">
          <mxGeometry x="360" y="120" width="20" height="20" as="geometry" />
        </mxCell>
        <mxCell id="xTKe3Vj9FoTpNCWQvqT8-42" value="" style="group" vertex="1" connectable="0" parent="xTKe3Vj9FoTpNCWQvqT8-12">
          <mxGeometry x="230" y="230" width="160" height="60" as="geometry" />
        </mxCell>
        <mxCell id="xTKe3Vj9FoTpNCWQvqT8-2" value=": Equalizer" style="html=1;whiteSpace=wrap;" vertex="1" parent="xTKe3Vj9FoTpNCWQvqT8-42">
          <mxGeometry y="10" width="160" height="50" as="geometry" />
        </mxCell>
        <mxCell id="xTKe3Vj9FoTpNCWQvqT8-41" value="&amp;lt;&amp;gt;" style="html=1;whiteSpace=wrap;points=[[0,0.5,0,0,0],[0.5,0,0,0,0],[0.5,1,0,0,0],[1,0.5,0,0,0]];rotation=90;" vertex="1" parent="xTKe3Vj9FoTpNCWQvqT8-42">
          <mxGeometry x="10" width="20" height="20" as="geometry" />
        </mxCell>
        <mxCell id="xTKe3Vj9FoTpNCWQvqT8-46" value="&amp;lt;" style="html=1;whiteSpace=wrap;points=[[0,0.5,0,0,0],[0.5,0,0,0,0],[0.5,1,0,0,0],[1,0.5,0,0,0]];rotation=90;" vertex="1" parent="xTKe3Vj9FoTpNCWQvqT8-42">
          <mxGeometry x="70" width="20" height="20" as="geometry" />
        </mxCell>
        <mxCell id="xTKe3Vj9FoTpNCWQvqT8-49" value="&amp;lt;&amp;gt;" style="html=1;whiteSpace=wrap;points=[[0,0.5,0,0,0],[0.5,0,0,0,0],[0.5,1,0,0,0],[1,0.5,0,0,0]];rotation=90;" vertex="1" parent="xTKe3Vj9FoTpNCWQvqT8-42">
          <mxGeometry x="130" width="20" height="20" as="geometry" />
        </mxCell>
        <mxCell id="xTKe3Vj9FoTpNCWQvqT8-43" style="edgeStyle=orthogonalEdgeStyle;rounded=0;orthogonalLoop=1;jettySize=auto;html=1;exitX=0;exitY=0.5;exitDx=0;exitDy=0;exitPerimeter=0;entryX=1;entryY=0.5;entryDx=0;entryDy=0;entryPerimeter=0;endArrow=none;endFill=0;" edge="1" parent="xTKe3Vj9FoTpNCWQvqT8-12" source="xTKe3Vj9FoTpNCWQvqT8-41" target="xTKe3Vj9FoTpNCWQvqT8-37">
          <mxGeometry relative="1" as="geometry" />
        </mxCell>
        <mxCell id="xTKe3Vj9FoTpNCWQvqT8-44" value="EqSampleData: AXI4Lite" style="edgeLabel;html=1;align=center;verticalAlign=middle;resizable=0;points=[];" vertex="1" connectable="0" parent="xTKe3Vj9FoTpNCWQvqT8-43">
          <mxGeometry x="0.0933" y="-1" relative="1" as="geometry">
            <mxPoint x="-11" y="29" as="offset" />
          </mxGeometry>
        </mxCell>
        <mxCell id="xTKe3Vj9FoTpNCWQvqT8-47" style="edgeStyle=orthogonalEdgeStyle;rounded=0;orthogonalLoop=1;jettySize=auto;html=1;exitX=1;exitY=0.5;exitDx=0;exitDy=0;exitPerimeter=0;entryX=0;entryY=0.5;entryDx=0;entryDy=0;entryPerimeter=0;endArrow=none;endFill=0;" edge="1" parent="xTKe3Vj9FoTpNCWQvqT8-12" source="xTKe3Vj9FoTpNCWQvqT8-45" target="xTKe3Vj9FoTpNCWQvqT8-46">
          <mxGeometry relative="1" as="geometry" />
        </mxCell>
        <mxCell id="xTKe3Vj9FoTpNCWQvqT8-48" value="EqDone: FabricInterrupt&amp;nbsp;" style="edgeLabel;html=1;align=center;verticalAlign=middle;resizable=0;points=[];" vertex="1" connectable="0" parent="xTKe3Vj9FoTpNCWQvqT8-47">
          <mxGeometry x="-0.3841" relative="1" as="geometry">
            <mxPoint as="offset" />
          </mxGeometry>
        </mxCell>
        <mxCell id="xTKe3Vj9FoTpNCWQvqT8-51" style="edgeStyle=orthogonalEdgeStyle;rounded=0;orthogonalLoop=1;jettySize=auto;html=1;exitX=1;exitY=0.5;exitDx=0;exitDy=0;exitPerimeter=0;entryX=0;entryY=0.5;entryDx=0;entryDy=0;entryPerimeter=0;endArrow=none;endFill=0;" edge="1" parent="xTKe3Vj9FoTpNCWQvqT8-12" source="xTKe3Vj9FoTpNCWQvqT8-50" target="xTKe3Vj9FoTpNCWQvqT8-49">
          <mxGeometry relative="1" as="geometry" />
        </mxCell>
        <mxCell id="xTKe3Vj9FoTpNCWQvqT8-52" value="EqControl: AXI4Lite" style="edgeLabel;html=1;align=center;verticalAlign=middle;resizable=0;points=[];" vertex="1" connectable="0" parent="xTKe3Vj9FoTpNCWQvqT8-51">
          <mxGeometry x="0.0349" relative="1" as="geometry">
            <mxPoint x="10" y="23" as="offset" />
          </mxGeometry>
        </mxCell>
        <mxCell id="xTKe3Vj9FoTpNCWQvqT8-24" style="edgeStyle=orthogonalEdgeStyle;rounded=0;orthogonalLoop=1;jettySize=auto;html=1;exitX=1;exitY=0.5;exitDx=0;exitDy=0;exitPerimeter=0;entryX=1;entryY=0.5;entryDx=0;entryDy=0;entryPerimeter=0;endArrow=none;endFill=0;" edge="1" parent="xTKe3Vj9FoTpNCWQvqT8-21" source="xTKe3Vj9FoTpNCWQvqT8-8" target="xTKe3Vj9FoTpNCWQvqT8-16">
          <mxGeometry relative="1" as="geometry" />
        </mxCell>
        <mxCell id="xTKe3Vj9FoTpNCWQvqT8-25" value="AudioData: AXI4Lite" style="edgeLabel;html=1;align=center;verticalAlign=middle;resizable=0;points=[];" vertex="1" connectable="0" parent="xTKe3Vj9FoTpNCWQvqT8-24">
          <mxGeometry x="0.04" y="-1" relative="1" as="geometry">
            <mxPoint x="7" y="-16" as="offset" />
          </mxGeometry>
        </mxCell>
        <mxCell id="xTKe3Vj9FoTpNCWQvqT8-28" value="&amp;gt;" style="html=1;whiteSpace=wrap;points=[[0,0.5,0,0,0],[0.5,0,0,0,0],[0.5,1,0,0,0],[1,0.5,0,0,0]];" vertex="1" parent="xTKe3Vj9FoTpNCWQvqT8-21">
          <mxGeometry y="310" width="20" height="20" as="geometry" />
        </mxCell>
        <mxCell id="xTKe3Vj9FoTpNCWQvqT8-29" style="edgeStyle=orthogonalEdgeStyle;rounded=0;orthogonalLoop=1;jettySize=auto;html=1;exitX=1;exitY=0.5;exitDx=0;exitDy=0;exitPerimeter=0;entryX=0;entryY=0.5;entryDx=0;entryDy=0;entryPerimeter=0;endArrow=none;endFill=0;" edge="1" parent="xTKe3Vj9FoTpNCWQvqT8-21" source="xTKe3Vj9FoTpNCWQvqT8-28" target="xTKe3Vj9FoTpNCWQvqT8-11">
          <mxGeometry relative="1" as="geometry" />
        </mxCell>
        <mxCell id="xTKe3Vj9FoTpNCWQvqT8-31" value="clock: Logic" style="edgeLabel;html=1;align=center;verticalAlign=middle;resizable=0;points=[];" vertex="1" connectable="0" parent="xTKe3Vj9FoTpNCWQvqT8-29">
          <mxGeometry x="0.0546" y="-2" relative="1" as="geometry">
            <mxPoint x="-11" y="-2" as="offset" />
          </mxGeometry>
        </mxCell>
        <mxCell id="xTKe3Vj9FoTpNCWQvqT8-33" value="&amp;gt;" style="html=1;whiteSpace=wrap;points=[[0,0.5,0,0,0],[0.5,0,0,0,0],[0.5,1,0,0,0],[1,0.5,0,0,0]];" vertex="1" parent="xTKe3Vj9FoTpNCWQvqT8-21">
          <mxGeometry y="380" width="20" height="20" as="geometry" />
        </mxCell>
        <mxCell id="xTKe3Vj9FoTpNCWQvqT8-34" style="edgeStyle=orthogonalEdgeStyle;rounded=0;orthogonalLoop=1;jettySize=auto;html=1;exitX=1;exitY=0.5;exitDx=0;exitDy=0;exitPerimeter=0;entryX=0;entryY=0.5;entryDx=0;entryDy=0;entryPerimeter=0;endArrow=none;endFill=0;" edge="1" parent="xTKe3Vj9FoTpNCWQvqT8-21" source="xTKe3Vj9FoTpNCWQvqT8-33" target="xTKe3Vj9FoTpNCWQvqT8-32">
          <mxGeometry relative="1" as="geometry" />
        </mxCell>
        <mxCell id="xTKe3Vj9FoTpNCWQvqT8-35" value="reset: Logic" style="edgeLabel;html=1;align=center;verticalAlign=middle;resizable=0;points=[];" vertex="1" connectable="0" parent="xTKe3Vj9FoTpNCWQvqT8-34">
          <mxGeometry x="0.6841" relative="1" as="geometry">
            <mxPoint x="-84" as="offset" />
          </mxGeometry>
        </mxCell>
        <mxCell id="xTKe3Vj9FoTpNCWQvqT8-38" value="&amp;lt;&amp;gt;" style="html=1;whiteSpace=wrap;points=[[0,0.5,0,0,0],[0.5,0,0,0,0],[0.5,1,0,0,0],[1,0.5,0,0,0]];" vertex="1" parent="xTKe3Vj9FoTpNCWQvqT8-21">
          <mxGeometry y="345" width="20" height="20" as="geometry" />
        </mxCell>
        <mxCell id="xTKe3Vj9FoTpNCWQvqT8-39" style="edgeStyle=orthogonalEdgeStyle;rounded=0;orthogonalLoop=1;jettySize=auto;html=1;exitX=0;exitY=0.5;exitDx=0;exitDy=0;exitPerimeter=0;entryX=1;entryY=0.5;entryDx=0;entryDy=0;entryPerimeter=0;endArrow=none;endFill=0;" edge="1" parent="xTKe3Vj9FoTpNCWQvqT8-21" source="xTKe3Vj9FoTpNCWQvqT8-36" target="xTKe3Vj9FoTpNCWQvqT8-38">
          <mxGeometry relative="1" as="geometry" />
        </mxCell>
        <mxCell id="xTKe3Vj9FoTpNCWQvqT8-40" value="uart: Bus" style="edgeLabel;html=1;align=center;verticalAlign=middle;resizable=0;points=[];" vertex="1" connectable="0" parent="xTKe3Vj9FoTpNCWQvqT8-39">
          <mxGeometry x="0.1524" y="-1" relative="1" as="geometry">
            <mxPoint x="12" y="1" as="offset" />
          </mxGeometry>
        </mxCell>
        <mxCell id="xTKe3Vj9FoTpNCWQvqT8-70" value="" style="group" vertex="1" connectable="0" parent="xTKe3Vj9FoTpNCWQvqT8-21">
          <mxGeometry x="270" y="130" width="160" height="60" as="geometry" />
        </mxCell>
        <mxCell id="xTKe3Vj9FoTpNCWQvqT8-6" value=": PitchShifter" style="html=1;whiteSpace=wrap;" vertex="1" parent="xTKe3Vj9FoTpNCWQvqT8-70">
          <mxGeometry width="160" height="50" as="geometry" />
        </mxCell>
        <mxCell id="xTKe3Vj9FoTpNCWQvqT8-69" value="&amp;lt;&amp;gt;" style="html=1;whiteSpace=wrap;points=[[0,0.5,0,0,0],[0.5,0,0,0,0],[0.5,1,0,0,0],[1,0.5,0,0,0]];rotation=90;" vertex="1" parent="xTKe3Vj9FoTpNCWQvqT8-70">
          <mxGeometry x="10" y="40" width="20" height="20" as="geometry" />
        </mxCell>
        <mxCell id="xTKe3Vj9FoTpNCWQvqT8-73" value="&amp;lt;" style="html=1;whiteSpace=wrap;points=[[0,0.5,0,0,0],[0.5,0,0,0,0],[0.5,1,0,0,0],[1,0.5,0,0,0]];rotation=270;" vertex="1" parent="xTKe3Vj9FoTpNCWQvqT8-70">
          <mxGeometry x="70" y="40" width="20" height="20" as="geometry" />
        </mxCell>
        <mxCell id="xTKe3Vj9FoTpNCWQvqT8-75" value="&amp;lt;&amp;gt;" style="html=1;whiteSpace=wrap;points=[[0,0.5,0,0,0],[0.5,0,0,0,0],[0.5,1,0,0,0],[1,0.5,0,0,0]];rotation=90;" vertex="1" parent="xTKe3Vj9FoTpNCWQvqT8-70">
          <mxGeometry x="130" y="40" width="20" height="20" as="geometry" />
        </mxCell>
        <mxCell id="xTKe3Vj9FoTpNCWQvqT8-95" value="&amp;gt;" style="html=1;whiteSpace=wrap;points=[[0,0.5,0,0,0],[0.5,0,0,0,0],[0.5,1,0,0,0],[1,0.5,0,0,0]];rotation=90;" vertex="1" parent="xTKe3Vj9FoTpNCWQvqT8-70">
          <mxGeometry x="70" y="-10" width="20" height="20" as="geometry" />
        </mxCell>
        <mxCell id="xTKe3Vj9FoTpNCWQvqT8-76" style="edgeStyle=orthogonalEdgeStyle;rounded=0;orthogonalLoop=1;jettySize=auto;html=1;exitX=1;exitY=0.5;exitDx=0;exitDy=0;exitPerimeter=0;entryX=0;entryY=0.5;entryDx=0;entryDy=0;entryPerimeter=0;endArrow=none;endFill=0;" edge="1" parent="xTKe3Vj9FoTpNCWQvqT8-21" source="xTKe3Vj9FoTpNCWQvqT8-69" target="xTKe3Vj9FoTpNCWQvqT8-71">
          <mxGeometry relative="1" as="geometry" />
        </mxCell>
        <mxCell id="xTKe3Vj9FoTpNCWQvqT8-79" value="PsSampleData: AXI4Lite" style="edgeLabel;html=1;align=center;verticalAlign=middle;resizable=0;points=[];" vertex="1" connectable="0" parent="xTKe3Vj9FoTpNCWQvqT8-76">
          <mxGeometry x="-0.1464" y="-1" relative="1" as="geometry">
            <mxPoint x="-3" y="31" as="offset" />
          </mxGeometry>
        </mxCell>
        <mxCell id="xTKe3Vj9FoTpNCWQvqT8-77" style="edgeStyle=orthogonalEdgeStyle;rounded=0;orthogonalLoop=1;jettySize=auto;html=1;exitX=0;exitY=0.5;exitDx=0;exitDy=0;exitPerimeter=0;entryX=1;entryY=0.5;entryDx=0;entryDy=0;entryPerimeter=0;endArrow=none;endFill=0;" edge="1" parent="xTKe3Vj9FoTpNCWQvqT8-21" source="xTKe3Vj9FoTpNCWQvqT8-73" target="xTKe3Vj9FoTpNCWQvqT8-72">
          <mxGeometry relative="1" as="geometry" />
        </mxCell>
        <mxCell id="xTKe3Vj9FoTpNCWQvqT8-80" value="PsDone: FabricInterrupt" style="edgeLabel;html=1;align=center;verticalAlign=middle;resizable=0;points=[];" vertex="1" connectable="0" parent="xTKe3Vj9FoTpNCWQvqT8-77">
          <mxGeometry x="-0.269" y="-1" relative="1" as="geometry">
            <mxPoint as="offset" />
          </mxGeometry>
        </mxCell>
        <mxCell id="xTKe3Vj9FoTpNCWQvqT8-78" style="edgeStyle=orthogonalEdgeStyle;rounded=0;orthogonalLoop=1;jettySize=auto;html=1;exitX=1;exitY=0.5;exitDx=0;exitDy=0;exitPerimeter=0;entryX=0;entryY=0.5;entryDx=0;entryDy=0;entryPerimeter=0;endArrow=none;endFill=0;" edge="1" parent="xTKe3Vj9FoTpNCWQvqT8-21" source="xTKe3Vj9FoTpNCWQvqT8-75" target="xTKe3Vj9FoTpNCWQvqT8-74">
          <mxGeometry relative="1" as="geometry" />
        </mxCell>
        <mxCell id="xTKe3Vj9FoTpNCWQvqT8-81" value="PsControl: AXI4Lite" style="edgeLabel;html=1;align=center;verticalAlign=middle;resizable=0;points=[];" vertex="1" connectable="0" parent="xTKe3Vj9FoTpNCWQvqT8-78">
          <mxGeometry x="0.3134" relative="1" as="geometry">
            <mxPoint as="offset" />
          </mxGeometry>
        </mxCell>
        <mxCell id="xTKe3Vj9FoTpNCWQvqT8-83" value="" style="group" vertex="1" connectable="0" parent="xTKe3Vj9FoTpNCWQvqT8-21">
          <mxGeometry x="480" y="130" width="160" height="60" as="geometry" />
        </mxCell>
        <mxCell id="xTKe3Vj9FoTpNCWQvqT8-7" value=": Reverb" style="html=1;whiteSpace=wrap;" vertex="1" parent="xTKe3Vj9FoTpNCWQvqT8-83">
          <mxGeometry width="160" height="50" as="geometry" />
        </mxCell>
        <mxCell id="xTKe3Vj9FoTpNCWQvqT8-82" value="&amp;lt;&amp;gt;" style="html=1;whiteSpace=wrap;points=[[0,0.5,0,0,0],[0.5,0,0,0,0],[0.5,1,0,0,0],[1,0.5,0,0,0]];rotation=90;" vertex="1" parent="xTKe3Vj9FoTpNCWQvqT8-83">
          <mxGeometry x="10" y="40" width="20" height="20" as="geometry" />
        </mxCell>
        <mxCell id="xTKe3Vj9FoTpNCWQvqT8-86" value="&amp;lt;&amp;gt;" style="html=1;whiteSpace=wrap;points=[[0,0.5,0,0,0],[0.5,0,0,0,0],[0.5,1,0,0,0],[1,0.5,0,0,0]];rotation=90;" vertex="1" parent="xTKe3Vj9FoTpNCWQvqT8-83">
          <mxGeometry x="130" y="40" width="20" height="20" as="geometry" />
        </mxCell>
        <mxCell id="xTKe3Vj9FoTpNCWQvqT8-88" value="&amp;lt;" style="html=1;whiteSpace=wrap;points=[[0,0.5,0,0,0],[0.5,0,0,0,0],[0.5,1,0,0,0],[1,0.5,0,0,0]];rotation=270;" vertex="1" parent="xTKe3Vj9FoTpNCWQvqT8-83">
          <mxGeometry x="70" y="40" width="20" height="20" as="geometry" />
        </mxCell>
        <mxCell id="xTKe3Vj9FoTpNCWQvqT8-97" value="&amp;gt;" style="html=1;whiteSpace=wrap;points=[[0,0.5,0,0,0],[0.5,0,0,0,0],[0.5,1,0,0,0],[1,0.5,0,0,0]];rotation=90;" vertex="1" parent="xTKe3Vj9FoTpNCWQvqT8-83">
          <mxGeometry x="70" y="-10" width="20" height="20" as="geometry" />
        </mxCell>
        <mxCell id="xTKe3Vj9FoTpNCWQvqT8-89" style="edgeStyle=orthogonalEdgeStyle;rounded=0;orthogonalLoop=1;jettySize=auto;html=1;exitX=1;exitY=0.5;exitDx=0;exitDy=0;exitPerimeter=0;entryX=0;entryY=0.5;entryDx=0;entryDy=0;entryPerimeter=0;endArrow=none;endFill=0;" edge="1" parent="xTKe3Vj9FoTpNCWQvqT8-21" source="xTKe3Vj9FoTpNCWQvqT8-82" target="xTKe3Vj9FoTpNCWQvqT8-84">
          <mxGeometry relative="1" as="geometry" />
        </mxCell>
        <mxCell id="xTKe3Vj9FoTpNCWQvqT8-92" value="RSampleData: AXI4Lite" style="edgeLabel;html=1;align=center;verticalAlign=middle;resizable=0;points=[];" vertex="1" connectable="0" parent="xTKe3Vj9FoTpNCWQvqT8-89">
          <mxGeometry x="-0.2996" relative="1" as="geometry">
            <mxPoint as="offset" />
          </mxGeometry>
        </mxCell>
        <mxCell id="xTKe3Vj9FoTpNCWQvqT8-90" style="edgeStyle=orthogonalEdgeStyle;rounded=0;orthogonalLoop=1;jettySize=auto;html=1;exitX=0;exitY=0.5;exitDx=0;exitDy=0;exitPerimeter=0;entryX=1;entryY=0.5;entryDx=0;entryDy=0;entryPerimeter=0;endArrow=none;endFill=0;" edge="1" parent="xTKe3Vj9FoTpNCWQvqT8-21" source="xTKe3Vj9FoTpNCWQvqT8-88" target="xTKe3Vj9FoTpNCWQvqT8-87">
          <mxGeometry relative="1" as="geometry" />
        </mxCell>
        <mxCell id="xTKe3Vj9FoTpNCWQvqT8-93" value="RDone: FabricInterrupt" style="edgeLabel;html=1;align=center;verticalAlign=middle;resizable=0;points=[];" vertex="1" connectable="0" parent="xTKe3Vj9FoTpNCWQvqT8-90">
          <mxGeometry x="0.4667" relative="1" as="geometry">
            <mxPoint as="offset" />
          </mxGeometry>
        </mxCell>
        <mxCell id="xTKe3Vj9FoTpNCWQvqT8-91" style="edgeStyle=orthogonalEdgeStyle;rounded=0;orthogonalLoop=1;jettySize=auto;html=1;exitX=1;exitY=0.5;exitDx=0;exitDy=0;exitPerimeter=0;entryX=0;entryY=0.5;entryDx=0;entryDy=0;entryPerimeter=0;endArrow=none;endFill=0;" edge="1" parent="xTKe3Vj9FoTpNCWQvqT8-21" source="xTKe3Vj9FoTpNCWQvqT8-86" target="xTKe3Vj9FoTpNCWQvqT8-85">
          <mxGeometry relative="1" as="geometry" />
        </mxCell>
        <mxCell id="xTKe3Vj9FoTpNCWQvqT8-94" value="RControl: AXI4Lite" style="edgeLabel;html=1;align=center;verticalAlign=middle;resizable=0;points=[];" vertex="1" connectable="0" parent="xTKe3Vj9FoTpNCWQvqT8-91">
          <mxGeometry x="-0.4989" y="1" relative="1" as="geometry">
            <mxPoint as="offset" />
          </mxGeometry>
        </mxCell>
        <mxCell id="xTKe3Vj9FoTpNCWQvqT8-96" value="&amp;gt;" style="html=1;whiteSpace=wrap;points=[[0,0.5,0,0,0],[0.5,0,0,0,0],[0.5,1,0,0,0],[1,0.5,0,0,0]];rotation=90;" vertex="1" parent="xTKe3Vj9FoTpNCWQvqT8-21">
          <mxGeometry x="340" y="-10" width="20" height="20" as="geometry" />
        </mxCell>
        <mxCell id="xTKe3Vj9FoTpNCWQvqT8-98" value="&amp;gt;" style="html=1;whiteSpace=wrap;points=[[0,0.5,0,0,0],[0.5,0,0,0,0],[0.5,1,0,0,0],[1,0.5,0,0,0]];rotation=90;" vertex="1" parent="xTKe3Vj9FoTpNCWQvqT8-21">
          <mxGeometry x="550" y="-10" width="20" height="20" as="geometry" />
        </mxCell>
        <mxCell id="xTKe3Vj9FoTpNCWQvqT8-99" style="edgeStyle=orthogonalEdgeStyle;rounded=0;orthogonalLoop=1;jettySize=auto;html=1;exitX=1;exitY=0.5;exitDx=0;exitDy=0;exitPerimeter=0;entryX=0;entryY=0.5;entryDx=0;entryDy=0;entryPerimeter=0;endArrow=none;endFill=0;" edge="1" parent="xTKe3Vj9FoTpNCWQvqT8-21" source="xTKe3Vj9FoTpNCWQvqT8-96" target="xTKe3Vj9FoTpNCWQvqT8-95">
          <mxGeometry relative="1" as="geometry" />
        </mxCell>
        <mxCell id="xTKe3Vj9FoTpNCWQvqT8-101" value="clock: Logic" style="edgeLabel;html=1;align=center;verticalAlign=middle;resizable=0;points=[];" vertex="1" connectable="0" parent="xTKe3Vj9FoTpNCWQvqT8-99">
          <mxGeometry x="0.2485" y="3" relative="1" as="geometry">
            <mxPoint as="offset" />
          </mxGeometry>
        </mxCell>
        <mxCell id="xTKe3Vj9FoTpNCWQvqT8-100" style="edgeStyle=orthogonalEdgeStyle;rounded=0;orthogonalLoop=1;jettySize=auto;html=1;exitX=1;exitY=0.5;exitDx=0;exitDy=0;exitPerimeter=0;entryX=0;entryY=0.5;entryDx=0;entryDy=0;entryPerimeter=0;endArrow=none;endFill=0;" edge="1" parent="xTKe3Vj9FoTpNCWQvqT8-21" source="xTKe3Vj9FoTpNCWQvqT8-98" target="xTKe3Vj9FoTpNCWQvqT8-97">
          <mxGeometry relative="1" as="geometry" />
        </mxCell>
        <mxCell id="xTKe3Vj9FoTpNCWQvqT8-102" value="clock: Logic" style="edgeLabel;html=1;align=center;verticalAlign=middle;resizable=0;points=[];" vertex="1" connectable="0" parent="xTKe3Vj9FoTpNCWQvqT8-100">
          <mxGeometry x="0.1879" y="3" relative="1" as="geometry">
            <mxPoint as="offset" />
          </mxGeometry>
        </mxCell>
      </root>
    </mxGraphModel>
  </diagram>
</mxfile>
